<svg xmlns:xlink="http://www.w3.org/1999/xlink" xmlns="http://www.w3.org/2000/svg" id="rank-8" width="145" height="207" viewBox="0 0 77 154" class="svg-icon svg-icon-rank-8 top-10-rank"><path stroke="#595959" stroke-linejoin="square" stroke-width="4px" d="M59.5 152c11.335 0 21.358-1.72 30.077-5.15 8.637-3.397 15.361-8.258 20.213-14.586 4.805-6.267 7.21-13.876 7.21-22.899 0-7.326-2.261-14.07-6.813-20.29-4.548-6.214-10.837-10.658-18.922-13.35l-5.4-1.799 5.338-1.975c7.238-2.678 12.572-6.683 16.066-12.018 3.53-5.388 5.284-11.178 5.284-17.414 0-7.912-2.133-14.839-6.405-20.84-4.3-6.042-10.403-10.825-18.345-14.351C79.816 3.78 70.386 2 59.5 2S39.184 3.781 31.197 7.328c-7.942 3.526-14.044 8.309-18.345 14.351-4.272 6.001-6.405 12.928-6.405 20.84 0 6.236 1.755 12.026 5.284 17.414 3.494 5.335 8.828 9.34 16.066 12.018l5.338 1.975-5.4 1.798c-8.085 2.693-14.374 7.137-18.922 13.351C4.261 95.295 2 102.04 2 109.365c0 9.023 2.405 16.632 7.21 22.899 4.852 6.328 11.576 11.19 20.213 14.586 8.72 3.43 18.742 5.15 30.077 5.15zm.5-89c-5.6 0-10.334-1.515-14.125-4.56C41.985 55.313 40 51.183 40 46.21c0-5.244 1.976-9.518 5.875-12.65C49.666 30.515 54.4 29 60 29s10.334 1.515 14.125 4.56C78.025 36.694 80 40.968 80 46.212c0 4.973-1.985 9.103-5.875 12.228C70.334 61.485 65.6 63 60 63zm-.5 62c-6.255 0-11.556-1.613-15.836-4.856-4.41-3.343-6.664-7.816-6.664-13.25 0-5.298 2.258-9.698 6.664-13.038C47.944 90.613 53.245 89 59.5 89c6.255 0 11.556 1.613 15.836 4.856 4.406 3.34 6.664 7.74 6.664 13.038 0 5.434-2.254 9.907-6.664 13.25C71.056 123.387 65.755 125 59.5 125z"></path></svg>