<svg xmlns:xlink="http://www.w3.org/1999/xlink" xmlns="http://www.w3.org/2000/svg" id="rank-10" width="147" height="210" viewBox="0 0 140 154" class="svg-icon svg-icon-rank-10 top-10-rank"><path stroke="#595959" stroke-linejoin="square" stroke-width="4px" d="M34.757 151.55h35.869V2.976L2 19.687v30.14l32.757-8.41v110.132zm105.53 3.45c12.394 0 23.097-3.12 32.163-9.353 9.093-6.25 16.11-15.047 21.066-26.43C198.5 107.766 201 94.196 201 78.5c0-15.698-2.5-29.266-7.484-40.716-4.955-11.384-11.973-20.18-21.066-26.431C163.384 5.119 152.681 2 140.287 2c-12.393 0-23.096 3.12-32.162 9.353-9.093 6.25-16.11 15.047-21.066 26.43-4.984 11.45-7.484 25.02-7.484 40.717 0 15.698 2.5 29.266 7.484 40.716 4.955 11.384 11.973 20.18 21.066 26.431 9.066 6.234 19.769 9.353 32.162 9.353zm0-31.368c-7.827 0-13.942-4.147-18.15-12.178-4.053-7.736-6.047-18.713-6.047-32.954s1.994-25.218 6.047-32.954c4.208-8.03 10.323-12.178 18.15-12.178 7.827 0 13.943 4.147 18.15 12.178 4.053 7.736 6.048 18.713 6.048 32.954s-1.995 25.218-6.047 32.954c-4.208 8.03-10.324 12.178-18.15 12.178z"></path></svg>