<svg xmlns:xlink="http://www.w3.org/1999/xlink" xmlns="http://www.w3.org/2000/svg" id="rank-5" width="145" height="207" viewBox="0 0 81 154" class="svg-icon svg-icon-rank-5 top-10-rank"><path stroke="#595959" stroke-linejoin="square" stroke-width="4px" d="M105.588 32.174V2H13.534l-8.3 88.357h32.463c2.145-2.362 4.866-4.254 8.143-5.675 3.585-1.554 7.543-2.328 11.859-2.328 6.247 0 11.418 1.745 15.418 5.255 4.061 3.564 6.104 8.37 6.104 14.265 0 6.041-2.044 10.89-6.121 14.387-3.999 3.43-9.162 5.132-15.401 5.132-4.299 0-8.17-.694-11.601-2.095-3.11-1.268-5.577-2.946-7.368-5.042H2.592c3.308 11.593 9.782 20.623 19.46 27.164C32.472 148.464 45.64 152 61.602 152c10.12 0 19.294-1.99 27.548-5.966 8.198-3.949 14.711-9.718 19.572-17.335 4.844-7.59 7.278-16.95 7.278-28.123 0-9.182-2.013-17.314-6.032-24.431-4.02-7.118-9.514-12.7-16.51-16.775-6.99-4.072-14.849-6.109-23.612-6.109-11.06 0-20.099 3.483-27.234 10.461l-3.892 3.806 3.273-35.354h63.595z"></path></svg>