<svg xmlns:xlink="http://www.w3.org/1999/xlink" xmlns="http://www.w3.org/2000/svg" id="rank-6" width="145" height="207" viewBox="0 0 81 154" class="svg-icon svg-icon-rank-6 top-10-rank"><path stroke="#595959" stroke-linejoin="square" stroke-width="4px" d="M79.482 38.192h35.551c-3.284-10.945-8.963-19.573-17.048-25.938C89.323 5.434 77.531 2 62.545 2 50.756 2 40.35 4.86 31.277 10.577c-9.064 5.712-16.198 14.09-21.412 25.178C4.63 46.893 2 60.425 2 76.365c0 14.416 2.356 27.344 7.059 38.798 4.667 11.368 11.573 20.34 20.734 26.956C38.904 148.7 50.225 152 63.816 152a61.513 61.513 0 0019.922-3.278 53.546 53.546 0 0017.378-9.792c5.154-4.33 9.255-9.64 12.314-15.947 3.042-6.273 4.57-13.556 4.57-21.868 0-8.812-2.062-16.636-6.182-23.51-4.134-6.897-9.643-12.293-16.55-16.212-6.905-3.917-14.48-5.874-22.76-5.874-14.546 0-25.34 4.55-32.569 13.63l-4.003 5.03.443-6.413c.874-12.636 3.56-21.85 8.168-27.654 4.69-5.907 10.885-8.9 18.421-8.9 4.26 0 7.826.734 10.685 2.24 2.445 1.287 4.396 2.867 5.829 4.74zM62.605 123c-5.825 0-10.902-1.894-15.136-5.655C43.173 113.528 41 108.603 41 102.71c0-5.881 2.164-10.864 6.44-14.818C51.674 83.975 56.762 82 62.604 82c5.847 0 10.906 1.98 15.074 5.905C81.878 91.859 84 96.837 84 102.71c0 5.885-2.131 10.805-6.35 14.622-4.167 3.77-9.214 5.668-15.045 5.668z"></path></svg>