<svg xmlns:xlink="http://www.w3.org/1999/xlink" xmlns="http://www.w3.org/2000/svg" id="rank-2" width="145" height="207" viewBox="0 0 80 154" class="svg-icon svg-icon-rank-2 top-10-rank"><path stroke="#595959" stroke-linejoin="square" stroke-width="4px" d="M3.72 152H113v-30.174H50.484l4.355-3.55 29.453-24.012c5.088-4.124 9.748-8.459 13.983-13.004 4.16-4.464 7.481-9.339 9.972-14.629 2.449-5.203 3.678-11.113 3.678-17.749 0-9.428-2.294-17.627-6.875-24.645-4.597-7.042-10.941-12.494-19.07-16.376C77.803 3.957 68.496 2 58.036 2 47.591 2 38.37 4.023 30.347 8.06c-8.015 4.032-14.457 9.578-19.352 16.654-4.492 6.493-7.389 13.803-8.693 21.952h34.055c1.236-3.52 3.398-6.52 6.459-8.97 3.54-2.834 8.277-4.224 14.147-4.224 5.93 0 10.552 1.537 13.76 4.681 3.181 3.12 4.791 7.024 4.791 11.594 0 4.151-1.16 7.934-3.468 11.298-2.192 3.194-5.987 7.124-11.405 11.84L3.72 122.465V152z"></path></svg>